<svg fill="none" height="47" viewBox="0 0 303 47" width="303" xmlns="http://www.w3.org/2000/svg"><path d="m17.2 46.768c-2.9013 0-5.4187-.512-7.552-1.536-2.13333-1.0667-3.904-2.5813-5.312-4.544-1.36533-1.9627-2.38933-4.3733-3.072-7.232-.64-2.8587-.96-6.1227-.96-9.792 0-3.6267.32-6.8693.96-9.728.68267-2.9013 1.70667-5.33333 3.072-7.296 1.408-1.96267 3.17867-3.456 5.312-4.48 2.1333-1.06667 4.6507-1.600002 7.552-1.600002 5.8027 0 10.0693 2.026662 12.8 6.080002 2.7307 4.0533 4.096 9.728 4.096 17.024s-1.3653 12.9707-4.096 17.024-6.9973 6.08-12.8 6.08zm0-6.848c1.4933 0 2.752-.2773 3.776-.832 1.024-.5973 1.8347-1.4293 2.432-2.496.64-1.0667 1.088-2.368 1.344-3.904.2987-1.5787.448-3.328.448-5.248v-7.616c0-3.84-.5973-6.8693-1.792-9.088-1.152-2.21867-3.2213-3.328-6.208-3.328s-5.0773 1.10933-6.272 3.328c-1.152 2.2187-1.728 5.248-1.728 9.088v7.68c0 3.84.576 6.8693 1.728 9.088 1.1947 2.2187 3.2853 3.328 6.272 3.328zm24.295 6.08v-44.672h16.96c4.352 0 7.68 1.23733 9.984 3.712 2.304 2.47466 3.456 5.8453 3.456 10.112s-1.152 7.6373-3.456 10.112-5.632 3.712-9.984 3.712h-8.576v17.024zm8.384-23.872h6.848c2.2613 0 3.8827-.448 4.864-1.344.9813-.9387 1.472-2.4107 1.472-4.416v-2.432c0-2.0053-.4907-3.456-1.472-4.352-.9813-.93867-2.6027-1.408-4.864-1.408h-6.848zm30.183 23.872v-44.672h28.224v6.912h-19.84v11.648h19.136v6.912h-19.136v12.288h19.84v6.912zm45.159-32.064h-.64v32.064h-7.168v-44.672h10.304l11.712 32.064h.64v-32.064h7.168v44.672h-10.304zm39.783 32.064h-8.384v-44.672h16.96c4.352 0 7.68 1.23733 9.984 3.712 2.304 2.47466 3.456 5.8453 3.456 10.112 0 3.2853-.768 6.0587-2.304 8.32-1.493 2.2187-3.648 3.6267-6.464 4.224l9.536 18.304h-9.216l-8.512-17.344h-5.056zm6.848-23.872c2.261 0 3.883-.448 4.864-1.344.981-.9387 1.472-2.4107 1.472-4.416v-2.432c0-2.0053-.491-3.456-1.472-4.352-.981-.93867-2.603-1.408-4.864-1.408h-6.848v13.952zm30.119-8.192h-.64v32.064h-7.168v-44.672h10.304l11.712 32.064h.64v-32.064h7.168v44.672h-10.304zm30.951-12.608h13.888c5.803 0 10.112 1.92 12.928 5.76 2.859 3.84 4.288 9.3653 4.288 16.576 0 7.2533-1.429 12.8-4.288 16.64-2.816 3.7973-7.125 5.696-12.928 5.696h-13.888zm13.312 37.952c3.072 0 5.333-1.0027 6.784-3.008 1.493-2.0053 2.24-4.928 2.24-8.768v-7.744c0-3.7973-.747-6.6987-2.24-8.704-1.451-2.00534-3.712-3.008-6.784-3.008h-5.056v31.232zm33.895 6.72h-8.384v-44.672h16.96c4.352 0 7.68 1.23733 9.984 3.712 2.304 2.47466 3.456 5.8453 3.456 10.112 0 3.2853-.768 6.0587-2.304 8.32-1.493 2.2187-3.648 3.6267-6.464 4.224l9.536 18.304h-9.216l-8.512-17.344h-5.056zm6.848-23.872c2.261 0 3.883-.448 4.864-1.344.981-.9387 1.472-2.4107 1.472-4.416v-2.432c0-2.0053-.491-3.456-1.472-4.352-.981-.93867-2.603-1.408-4.864-1.408h-6.848v13.952z" fill="#0c120c"/></svg>