<svg viewBox="0 0 399.69275 80.24315" xmlns="http://www.w3.org/2000/svg" xmlns:xlink="http://www.w3.org/1999/xlink"><linearGradient id="a" gradientUnits="userSpaceOnUse" x1="31.14782" x2="67.66851" y1="50.75645" y2="35.87801"><stop offset="0" stop-color="#7f52ff"/><stop offset=".4998" stop-color="#c811e2"/><stop offset="1" stop-color="#e54857"/></linearGradient><path d="m49.89949 62.73263c-1.64542 1.29121-3.39768 2.45253-5.24133 3.46854 0 0-4.08517 1.93713-4.08517 4.19588 0 1.75484 1.10521 3.25154 2.65753 3.83202.85675.32037 1.43231 1.12736 1.43231 2.04206 0 1.15541-.93664 2.09204-2.09204 2.09204h-12.95895c-1.1554 0-2.09204-.93664-2.09204-2.09204 0-.9147.57555-1.72169 1.43231-2.04206 1.55232-.58047 2.65753-2.07718 2.65753-3.83202 0-2.25876-4.08517-4.19588-4.08517-4.19588-11.99506-6.6103-20.12173-19.37163-20.12173-34.03692 0-7.73083 2.49099-15.41299 6.38321-21.46565 3.69114-5.32851 9.8489-8.81851 16.8218-8.81851 9.88205 0 18.12692 7.00961 20.03374 16.32796" fill="#fff"/><path d="m68.38834 59.78685-3.62991-7.09109c-.40297-.7871.36035-1.66313 1.19517-1.372l3.40024 1.18549c1.192.41583 2.34456-.71418 1.95251-1.91455l-1.47838-4.5247c-1.20645-3.69261-2.04691-7.48596-2.78698-11.29956-.55444-2.85884-1.7084-5.50254-3.31958-7.80192l-15.42032 15.42032 19.43418 19.43418c.68406-.36572 1.06555-1.22987.65307-2.03616z" fill="#fff"/><path d="m48.30109 42.38886 15.42033-15.42033c-2.25651-3.21945-5.41545-5.75722-9.11156-7.24792-2.73909-1.10476-5.77018-1.63778-8.94743-1.44061-5.67895.3526-10.76644 3.0876-14.26741 7.20274-2.77714 3.26428-4.55705 7.39632-4.83674 11.90085-.19722 3.17675.34132 6.20429 1.44562 8.94293 1.49075 3.69712 4.02726 6.8552 7.24752 9.11202.2212.15492.43922.31384.66645.46022l.73232.52291c3.24596 2.14616 15.51752 7.22652 22.63643 10.10071 1.16876.4718 2.3696-.59885 2.03673-1.81426-.27934-1.0193-.58261-2.09957-.82673-2.96222-.20856-.73708.46917-1.41541 1.20574-1.20418 1.33992.38432 3.25689.9341 4.90995 1.40777.41251.11834.7989.04695 1.12297-.12644l-19.43418-19.43418z" fill="url(#a)"/><path d="m9.5085 18.58279-6.1644 1.83871c-1.52358.45445-1.96848 2.39751-.79444 3.46964l4.85294 4.43167" fill="#f19d18"/><path d="m20.04309 16.02656c-1.40934 0-2.5559 1.14674-2.5559 2.55626 0 1.40943 1.14656 2.55608 2.5559 2.55608 1.40969 0 2.55626-1.14665 2.55626-2.55608 0-1.40952-1.14656-2.55626-2.55626-2.55626z" fill="#1b1b1b"/><path d="m71.93437 53.18854c.81158-.79608 1.09619-1.96202.74324-3.04201l-1.47803-4.52497c-1.26316-3.86415-2.09517-7.79241-2.7426-11.12608-1.67-8.60883-8.30669-15.18247-16.52426-17.11252-2.27657-9.85057-11.15495-16.94553-21.32468-16.94553-7.18161 0-13.91376 3.52881-18.03576 9.48038-1.49141 2.31911-2.74224 4.79576-3.7465 7.36311l-5.8938 1.75798c-1.22018.36422-2.11841 1.32234-2.40303 2.56365s.10708 2.49532 1.04758 3.3541l4.51052 4.11821c-.08243 1.03085-.12716 2.06179-.12716 3.08947 0 14.68095 7.99601 28.20724 20.86853 35.30079l.07749.03945c1.36179.64602 3.2611 2.05853 3.2611 2.89265 0 1.09901-.69111 2.09587-1.72108 2.48052-1.41674.53048-2.36921 1.89368-2.36921 3.39355 0 1.94863 1.58582 3.53445 3.53515 3.53445h12.95917c1.94863 0 3.53445-1.58582 3.53445-3.53445 0-1.49987-.95248-2.86306-2.36992-3.39355-1.02856-.38465-1.71967-1.38151-1.71967-2.48052 0-.76367 1.72249-2.15716 3.2611-2.89265l.07749-.03945c1.67282-.92157 3.28647-1.9776 4.81804-3.13271 2.87786 1.21094 5.84131 2.4246 8.57369 3.52793.36352.14653.74183.21839 1.11662.21839.71083 0 1.40899-.25784 1.96343-.7524.84821-.75451 1.18848-1.90425.88837-3.00044-.19867-.72422-.40931-1.47944-.60234-2.16562l4.10227 1.17651c1.15467.3297 2.34526-.03945 3.10823-.96727.76367-.92852.89753-2.16984.34943-3.23997l-3.1033-6.06288 2.31004.80524c1.07294.37338 2.24311.11201 3.05539-.68336zm-68.41202-30.36229c-.22544-.20642-.20994-.45158-.18035-.57909.02888-.12822.12188-.35577.41424-.44242l3.90959-1.1662c-.48223 1.62307-.85913 3.27194-1.13917 4.93075l-3.00432-2.74304zm40.47601 42.09142c-.90739.43538-4.86805 2.50941-4.86805 5.47956 0 2.29595 1.44492 4.37914 3.59433 5.18296.30082.11272.49526.38395.49526.69111 0 .35788-.29096.64884-.64884.64884h-12.95917c-.35788 0-.64954-.29096-.64954-.64884 0-.30716.19444-.57839.49455-.69111 2.15082-.80383 3.59574-2.88702 3.59574-5.18296 0-2.97015-3.96067-5.04418-4.86805-5.47956-11.9299-6.59125-19.33907-19.13829-19.33907-32.75334 0-7.06396 2.24311-14.60346 6.12699-20.6445 3.55488-5.13224 9.40007-8.19679 15.63554-8.19679 8.43033 0 15.84055 5.61191 18.21505 13.56116-1.06766-.09255-2.15293-.1114-3.25018-.04403-10.97954.68125-19.77304 9.47474-20.45428 20.45428-.49244 7.9312 3.34635 15.52494 9.96084 19.77867l.77424.55162c1.81724 1.20169 6.18616 3.22244 11.21555 5.38753-.99545.68336-2.01943 1.32471-3.07089 1.90539zm19.47574-11.56498 3.62955 7.09214c.01409.02748.02536.04931-.00916.09158-.03522.04157-.05706.03452-.08454.02607l-4.91103-1.40828c-.84046-.24023-1.75067-.00704-2.37203.6115-.62066.61855-.85807 1.52805-.61855 2.37415.24305.85878.54528 1.93525.82355 2.94901.00704.02536.01339.04931-.02395.08243-.03593.03241-.05706.02395-.08102.01339-11.89398-4.80254-20.03934-8.42786-22.36135-9.9538l-.76719-.54528c-5.79376-3.72818-9.12743-10.32295-8.6998-17.2122.59107-9.52969 8.22356-17.16218 17.75325-17.75325 9.50504-.58825 18.06182 5.99665 19.87308 15.32486.66363 3.42102 1.51959 7.45918 2.83136 11.47269l1.47803 4.52497c.00845.02536.0162.04931-.02043.08524-.03804.03593-.05918.02818-.08524.01902l-3.40059-1.18566c-.93839-.32829-1.97047-.05495-2.62495.69674-.65377.75099-.78269 1.80844-.329 2.69469z" fill="#1b1b1b"/><g fill="#fff"><path d="m42.57091 80.24315h-12.95894c-2.19044 0-3.97287-1.782-3.97287-3.97202 0-1.68032 1.06638-3.20897 2.65357-3.80326.8596-.32085 1.4368-1.15311 1.4368-2.07082 0-.46697-1.46029-1.7615-3.01116-2.4972l-.08972-.04571c-13.02303-7.17629-21.10634-20.84957-21.10634-35.68964 0-.93821.0376-1.91658.11194-2.91076l-4.35226-3.97415c-1.05912-.96641-1.50003-2.378-1.17917-3.77506.32-1.39664 1.33127-2.47541 2.70398-2.8847l5.68994-1.69741c1.01554-2.55829 2.26222-4.99354 3.70799-7.24123 4.20142-6.06677 11.07822-9.68119 18.40319-9.68119 10.19856 0 19.27563 7.14169 21.68867 17.02068 8.4439 2.09004 14.94089 8.88908 16.59002 17.39152.6447 3.32006 1.47311 7.23183 2.72876 11.07355l1.47781 4.52486c.40545 1.23899.07904 2.57666-.85234 3.4901v.00043c-.93266.9113-2.27546 1.21164-3.5059.78398l-1.27915-.44604 2.60614 5.09095c.62847 1.22788.47509 2.65228-.40118 3.71739-.87413 1.06339-2.24043 1.48892-3.56614 1.11039l-3.34953-.96086c.13031.46612.2636.94633.39178 1.4133.34393 1.25821-.04657 2.57752-1.01939 3.4431-.95274.84892-2.33741 1.09415-3.53453.61308-3.02313-1.22104-5.8305-2.37544-8.34863-3.43327-1.51498 1.12876-3.08422 2.14216-4.66884 3.01501l-.08844.04571c-1.67391.80021-3.02355 2.08534-3.02355 2.50318 0 .9177.57677 1.74953 1.43551 2.07082 1.58761.59429 2.65399 2.12251 2.65399 3.80326 0 2.19001-1.782 3.97202-3.97202 3.97202zm-11.96305-79.36817c-7.0383 0-13.64594 3.47343-17.67563 9.29197-1.44363 2.2447-2.69074 4.69618-3.69901 7.27328l-.07776.19867-6.09838 1.81917c-1.06724.31829-1.8525 1.15653-2.10158 2.24214s.09314 2.18232.916 2.93341l4.66884 4.26254-.01709.21362c-.08374 1.04459-.12603 2.07252-.12603 3.05474 0 14.52134 7.90986 27.90111 20.64236 34.91719 1.15354.54943 3.56486 2.10158 3.56486 3.31536 0 1.28128-.80577 2.44251-2.00545 2.89026-1.24668.46697-2.08491 1.66622-2.08491 2.98382 0 1.70766 1.3898 3.09704 3.09789 3.09704h12.95894c1.70766 0 3.09704-1.38937 3.09704-3.09704 0-1.3176-.83824-2.51685-2.08577-2.98382-1.1984-.44817-2.00374-1.60983-2.00374-2.89026 0-1.098 2.09431-2.61042 3.50975-3.28716 1.67349-.91984 3.2769-1.9623 4.82094-3.12694l.20123-.15124.23199.09741c2.57325 1.08262 5.45581 2.26905 8.5678 3.52598.89036.35674 1.91573.1773 2.62537-.45501.72288-.64342 1.01298-1.62393.75706-2.55872-.19824-.72288-.40844-1.47738-.60155-2.16267l-.21234-.75535 4.8564 1.39322c.98521.27984 2.00075-.03546 2.64972-.82499.65111-.79167.76518-1.84993.29821-2.76251l-3.60118-7.03488 3.34099 1.16465c.91514.31829 1.91317.0957 2.60529-.58275.69212-.67888.93479-1.67263.63359-2.59375l-1.47781-4.52486c-1.27103-3.887-2.10628-7.8321-2.7561-11.17865-1.60128-8.25293-7.95814-14.83536-16.19483-16.76989l-.26489-.06238-.06152-.26489c-2.22376-9.62267-11.01287-16.60671-20.8987-16.60671z"/><path d="m107.62671 40.37859-12.23241-13.55499v13.55499h-3.8788v-29.70971h3.8788v13.76785l12.27593-13.76785h4.90053l-13.46795 14.87662 13.59661 14.8331h-5.07271z"/><path d="m118.51762 39.27077c-1.77668-.99524-3.16926-2.40864-4.17775-4.24208-1.00849-1.8325-1.51179-3.95638-1.51179-6.37164 0-2.38783.51843-4.49752 1.5553-6.33001 1.03687-1.83344 2.45027-3.23927 4.24208-4.22032 1.78992-.98011 3.79366-1.47016 6.0093-1.47016s4.21938.49005 6.0093 1.47016c1.79182.98105 3.20521 2.38026 4.24208 4.19856 1.03687 1.81925 1.5553 3.93651 1.5553 6.35177s-.53168 4.53914-1.59882 6.37164c-1.06525 1.83344-2.50703 3.24684-4.32533 4.24208-1.81831.9943-3.83717 1.49192-6.05282 1.49192-2.18916 0-4.17018-.49762-5.94686-1.49192zm9.86729-2.8987c1.22229-.65372 2.20997-1.63383 2.96302-2.94127.75305-1.30649 1.12958-2.89869 1.12958-4.77376 0-1.87601-.36896-3.46727-1.10877-4.77471-.73792-1.30649-1.70478-2.27998-2.89869-2.91951-1.19202-.63953-2.48622-.95929-3.8788-.95929-1.42097 0-2.72084.31976-3.89961.95929s-2.12483 1.61301-2.83436 2.91951c-.71143 1.30744-1.06525 2.89869-1.06525 4.77471 0 1.90345.34815 3.50984 1.04444 4.81633.69629 1.30744 1.62531 2.27998 2.79084 2.91951s2.44459.95929 3.83717.95929 2.70002-.32639 3.92043-.98011z"/><path d="m145.4346 20.21735v13.76785c0 1.1362.24219 1.9394.72467 2.40769.48248.46924 1.32258.70386 2.5146.70386h2.85707v3.28184h-3.4966c-2.15888 0-3.77852-.49668-4.85891-1.49192-1.08039-.9943-1.61964-2.62812-1.61964-4.90148v-13.76785h-3.02546v-3.19764h3.02546v-5.88158h3.8788v5.88158h6.09634v3.19764h-6.09634z"/><path d="m160.09835 8.83638v31.54221h-3.8788v-31.54221z"/><path d="m166.61852 12.4588c-.51087-.51087-.7663-1.1362-.7663-1.87507s.25543-1.3642.7663-1.87601c.51276-.51087 1.13715-.76725 1.87507-.76725.71143 0 1.31501.25638 1.81263.76725.49762.51181.74549 1.13715.74549 1.87601s-.24786 1.3642-.74549 1.87507c-.49762.51181-1.1012.76725-1.81263.76725-.73792 0-1.36231-.25543-1.87507-.76725zm3.75203 4.5609v23.35889h-3.8788v-23.35889z"/><path d="m194.83726 19.17291c1.76154 1.71897 2.64326 4.19856 2.64326 7.43783v13.76785h-3.83717v-13.21346c0-2.33012-.58277-4.11342-1.74641-5.34991-1.16553-1.23649-2.75679-1.85426-4.77376-1.85426-2.04725 0-3.67445.63953-4.88161 1.91859-1.20716 1.27811-1.81074 3.13994-1.81074 5.58358v12.91546h-3.8788v-23.35889h3.8788v3.32536c.7663-1.19391 1.81074-2.11726 3.13331-2.77098 1.32068-.65372 2.77571-.98011 4.36885-.98011 2.84004 0 5.14272.85996 6.90426 2.57893z"/><path d="m229.45129 10.66888v3.15413h-12.91546v10.01676h10.486v3.15413h-10.486v13.3847h-3.8788v-29.70972z"/><path d="m253.61716 30.14896h-18.66932c.14191 2.30174.93091 4.09923 2.36512 5.39153 1.43421 1.29325 3.17494 1.9394 5.22219 1.9394 1.6764 0 3.07466-.38977 4.19856-1.17215 1.12201-.78144 1.91102-1.82587 2.36512-3.13237h4.17775c-.62628 2.24497-1.87507 4.0699-3.75203 5.47668-1.87507 1.40677-4.20424 2.11063-6.98941 2.11063-2.21754 0-4.19856-.49762-5.94686-1.49192-1.7483-.99524-3.11818-2.40864-4.11342-4.24208-.99524-1.8325-1.49097-3.95638-1.49097-6.37164s.48248-4.53252 1.44935-6.35177c.96497-1.81831 2.3216-3.21751 4.0699-4.19856 1.7483-.98011 3.75771-1.47016 6.03201-1.47016 2.21565 0 4.17775.48343 5.88253 1.44935s3.0179 2.29511 3.94124 3.98476c.92334 1.69154 1.38691 3.60255 1.38691 5.73306 0 .73981-.04352 1.52125-.12866 2.34525zm-4.85891-6.96954c-.65467-1.06525-1.54206-1.87601-2.66407-2.42945-1.12391-.55438-2.36512-.83158-3.72932-.83158-1.9621 0-3.63093.62534-5.00838 1.87601-1.37934 1.25068-2.16834 2.98384-2.36701 5.19948h14.7489c0-1.47678-.32733-2.74922-.98011-3.81447z"/><path d="m261.67181 39.84596c-1.42097-.61115-2.54298-1.46354-3.36604-2.55812-.82495-1.09363-1.27906-2.35093-1.3642-3.7719h4.00557c.11353 1.16553.66223 2.11726 1.64234 2.85612s2.26484 1.10782 3.85799 1.10782c1.47584 0 2.64137-.32639 3.4947-.98011.85144-.65372 1.27906-1.47773 1.27906-2.47203 0-1.02362-.456-1.7833-1.3642-2.28092-.9101-.49668-2.31593-.98673-4.21938-1.47016-1.73505-.4541-3.14845-.91672-4.24208-1.38596-1.09363-.46829-2.03211-1.16459-2.81355-2.08793s-1.17121-2.13807-1.17121-3.64513c0-1.19297.35382-2.2866 1.06525-3.28184.70954-.9943 1.71802-1.7833 3.02546-2.36607 1.30744-.58182 2.79841-.8732 4.4767-.8732 2.58461 0 4.67348.65372 6.26473 1.96021 1.59125 1.30744 2.44459 3.09831 2.55812 5.37072h-3.8788c-.08514-1.22135-.5752-2.20146-1.47016-2.94032s-2.09644-1.10877-3.60255-1.10877c-1.39258 0-2.50135.29895-3.32442.89496-.82495.59696-1.23554 1.37934-1.23554 2.34431 0 .76725.24786 1.40015.74549 1.89683.49762.49762 1.12201.89591 1.87507 1.19391s1.79749.63291 3.13331 1.00187c1.6764.45505 3.0406.90253 4.09261 1.34244 1.05011.44086 1.95264 1.1012 2.7057 1.98197.75305.88172 1.14472 2.03211 1.1731 3.45308 0 1.27811-.35571 2.42945-1.06714 3.45213-.70954 1.02362-1.71235 1.82682-3.00465 2.40864s-2.7776.87415-4.454.87415c-1.78992 0-3.39631-.30652-4.81728-.91672z"/><path d="m285.20004 20.21735v13.76785c0 1.1362.24219 1.9394.72467 2.40769.48248.46924 1.32258.70386 2.5146.70386h2.85707v3.28184h-3.4966c-2.15888 0-3.77852-.49668-4.85891-1.49192-1.08039-.9943-1.61964-2.62812-1.61964-4.90148v-13.76785h-3.02546v-3.19764h3.02546v-5.88158h3.8788v5.88158h6.09634v3.19764h-6.09634z"/><path d="m313.03469 30.12721c2.04536-1.86088 3.77284-3.80785 5.17867-5.83996 1.40772-2.03117 2.10969-4.02733 2.10969-5.98849 0-1.84669-.44653-3.3036-1.3415-4.36885-.89496-1.0662-2.33863-1.59882-4.32723-1.59882-1.93183 0-3.43037.60453-4.49752 1.81168-1.06525 1.2081-1.64045 2.82017-1.72559 4.83809h-3.75014c.11163-3.18251 1.0785-5.64034 2.8968-7.37445 1.81831-1.73316 4.16261-2.59974 7.03482-2.59974 2.92518 0 5.24868.80982 6.96859 2.42945 1.71802 1.61964 2.57893 3.85136 2.57893 6.69235 0 2.3585-.70386 4.65361-2.10969 6.88345-1.40772 2.23173-3.00654 4.19194-4.79647 5.88253s-4.07747 3.65932-6.86264 5.90334h14.66375v3.24022h-20.50277v-2.77098c3.60823-2.89869 6.43692-5.27801 8.48227-7.13983z"/><path d="m330.85257 13.20523c1.59125-2.7426 4.37642-4.11342 8.3555-4.11342 3.94881 0 6.71884 1.37082 8.31198 4.11342 1.59125 2.7426 2.38593 6.55706 2.38593 11.44435 0 4.97338-.79468 8.83799-2.38593 11.59477-1.59315 2.75584-4.36318 4.13423-8.31198 4.13423-3.97908 0-6.76425-1.37839-8.3555-4.13423-1.59125-2.75679-2.38593-6.62139-2.38593-11.59477 0-4.88729.79468-8.70176 2.38593-11.44435zm14.72809 5.15786c-.32733-1.71897-.99524-3.10493-2.00373-4.15599s-2.4654-1.57706-4.36885-1.57706c-1.93372 0-3.40388.526-4.41237 1.57706s-1.6764 2.43702-2.00373 4.15599-.49005 3.81447-.49005 6.28649c0 2.55812.16272 4.70375.49005 6.43692s.99524 3.12574 2.00373 4.1768c1.00849 1.05201 2.47865 1.57706 4.41237 1.57706 1.90345 0 3.36036-.52506 4.36885-1.57706 1.00849-1.05106 1.6764-2.44364 2.00373-4.1768.32544-1.73316.49005-3.8788.49005-6.43692 0-2.47203-.16461-4.56752-.49005-6.28649z"/><path d="m362.18192 30.12721c2.04536-1.86088 3.77284-3.80785 5.17867-5.83996 1.40772-2.03117 2.10969-4.02733 2.10969-5.98849 0-1.84669-.44653-3.3036-1.3415-4.36885-.89496-1.0662-2.33863-1.59882-4.32723-1.59882-1.93183 0-3.43037.60453-4.49752 1.81168-1.06525 1.2081-1.64045 2.82017-1.72559 4.83809h-3.75014c.11163-3.18251 1.0785-5.64034 2.8968-7.37445 1.81831-1.73316 4.16261-2.59974 7.03482-2.59974 2.92518 0 5.24868.80982 6.96859 2.42945 1.71802 1.61964 2.57893 3.85136 2.57893 6.69235 0 2.3585-.70386 4.65361-2.10969 6.88345-1.40772 2.23173-3.00654 4.19194-4.79647 5.88253s-4.07747 3.65932-6.86264 5.90334h14.66375v3.24022h-20.50277v-2.77098c3.60823-2.89869 6.43692-5.27801 8.48227-7.13983z"/><path d="m375.82205 33.51595v-2.94127l14.96081-20.71563h4.64699v20.28991h4.2629v3.36699h-4.2629v6.86264h-3.83717v-6.86264zm15.94281-19.6078-11.46611 16.24082h11.46611z"/><path d="m98.90532 54.02791v12.49198c0 1.11714-.34186 2.02061-1.02557 2.71653-.68168.69592-1.60754 1.04388-2.77554 1.04388-1.22905 0-2.19561-.37848-2.9017-1.13545-.70406-.75697-1.05812-1.79881-1.05812-3.12961h1.02353c0 .97877.23604 1.7805.70609 2.40723s1.21277.9401 2.2302.9401c.97063 0 1.67265-.27878 2.10404-.83633.43342-.55755.64912-1.22702.64912-2.00637v-12.49198h1.04795z"/><path d="m111.147 70.11954-7.3499-7.58797v7.58797h-1.02353v-16.09163h1.02353v7.65716l7.3499-7.65716h1.32062l-7.78332 8.0682 7.8057 8.02343z"/><path d="m115.78851 54.02791v10.06236c0 1.81916.41104 3.15199 1.22905 4.00053.82005.84853 1.93515 1.27178 3.3453 1.27178 1.39591 0 2.49473-.41918 3.30053-1.25958.80377-.8404 1.20463-2.17933 1.20463-4.01273v-10.06236h1.02557v10.03998c0 2.09387-.50057 3.65256-1.50172 4.6761s-2.34415 1.53632-4.02901 1.53632c-1.68283 0-3.03804-.51685-4.06157-1.54852s-1.53632-2.5863-1.53632-4.66389v-10.03998h1.02353z"/><path d="m142.66284 58.77319c-.45377-1.20667-1.2087-2.16916-2.26276-2.88746s-2.30346-1.07847-3.74413-1.07847c-1.25958 0-2.39706.29912-3.41245.89534-1.01743.59621-1.8212 1.44271-2.41334 2.54357-.59011 1.10086-.8872 2.38282-.8872 3.84995s.29709 2.75112.8872 3.85198c.59214 1.09882 1.39591 1.94329 2.41334 2.53136 1.01539.59011 2.15288.88313 3.41245.88313 1.21481 0 2.31363-.27471 3.30053-.82412.98487-.55145 1.77439-1.33486 2.36654-2.35026.59011-1.01539.91772-2.20375.97877-3.56507h-7.12403v-.87092h8.16994v.68778c-.04477 1.49765-.4029 2.84269-1.07033 4.03512s-1.57701 2.12439-2.73078 2.79589c-1.15173.67354-2.44997 1.00929-3.89064 1.00929-1.4712 0-2.79793-.34796-3.98221-1.04388-1.18225-.69592-2.10811-1.66451-2.77554-2.90984s-1.00115-2.65549-1.00115-4.23046c0-1.58922.33372-3.00548 1.00115-4.25081s1.59329-2.21596 2.77554-2.91188c1.18429-.69389 2.51101-1.04185 3.98221-1.04185 1.71538 0 3.19676.43139 4.44819 1.29417 1.25144.86481 2.16712 2.05927 2.74298 3.58745h-1.18429z"/><path d="m162.21169 61.87838c-.87906.78749-2.1834 1.18022-3.91303 1.18022h-3.41449v7.06095h-1.02353v-16.09163h4.43802c1.75811 0 3.0706.40901 3.93541 1.22702s1.29824 1.9209 1.29824 3.31274c0 1.42033-.44156 2.52526-1.32062 3.31071zm.29506-3.31071c0-1.17615-.33372-2.07555-1.00115-2.69415s-1.73573-.92789-3.20693-.92789h-3.41449v7.19728h3.41449c2.80607 0 4.20808-1.19243 4.20808-3.57524z"/><path d="m168.92468 58.14238c.77324-.48023 1.76015-.72237 2.95868-.72237v1.07847h-.34186c-1.21277 0-2.22206.34796-3.02583 1.04185-.80377.69592-1.20667 1.83137-1.20667 3.40431v7.1749h-1.02353v-12.44721h1.02353v2.56799c.30319-.91772.84243-1.61567 1.61567-2.09794z"/><path d="m185.33172 64.29782h-10.67282c.03052 1.1151.27267 2.0552.72848 2.81827.45581.76511 1.05405 1.3369 1.79881 1.71945.74272.38255 1.55463.57383 2.43369.57383 1.21277 0 2.2302-.30319 3.05025-.90551.81801-.60435 1.33486-1.4244 1.54649-2.46421h1.07033c-.24418 1.26771-.86481 2.29532-1.86596 3.08281s-2.26886 1.18022-3.80111 1.18022c-1.15376 0-2.1834-.26046-3.09501-.77935-.90958-.51889-1.62381-1.26365-2.13863-2.23427s-.77324-2.10608-.77324-3.40431.25436-2.42962.76104-3.3921c.50871-.96249 1.21888-1.6991 2.12846-2.21189s1.94939-.76714 3.1174-.76714c1.18429 0 2.21189.25436 3.08281.76714.87295.51278 1.53632 1.19243 1.99212 2.03892.45581.84853.68168 1.76218.68168 2.73891 0 .55145-.01424.96452-.04477 1.23923zm-1.5587-3.64443c-.43139-.76511-1.01946-1.33283-1.76422-1.70724-.74272-.37441-1.54649-.56162-2.4113-.56162s-1.66451.18721-2.40113.56162-1.33486.94214-1.79678 1.70724c-.46395.76307-.71016 1.69503-.74069 2.79589h9.69405c.0468-1.10086-.14854-2.03282-.57993-2.79589z"/><path d="m189.21015 69.38496c-.87092-.61046-1.36132-1.48137-1.46713-2.61275h1.04795c.07529.80987.4436 1.45289 1.10289 1.92497.65929.47412 1.5587.7122 2.69618.7122.9401 0 1.68689-.24215 2.24241-.72237.55348-.48226.83022-1.0744.83022-1.77643 0-.48837-.14854-.89127-.4436-1.20463-.29709-.31133-.6654-.55348-1.10493-.72034-.43953-.16889-1.03778-.35203-1.79678-.55145-.90958-.24418-1.6462-.4843-2.20782-.72237-.56162-.23604-1.03981-.59011-1.43254-1.06423-.39476-.47412-.59214-1.109-.59214-1.90259 0-.58197.17296-1.11917.52296-1.61567.34796-.4965.83429-.89127 1.45696-1.18022.62063-.29098 1.32673-.43546 2.11625-.43546 1.28806 0 2.33194.32354 3.12757.97266.79766.65115 1.22498 1.54852 1.28603 2.69415h-1.02353c-.04477-.82615-.36424-1.49765-.95638-2.01654-.59011-.52092-1.41015-.77935-2.45607-.77935-.88109 0-1.60957.2279-2.18543.68778-.57586.45784-.86481 1.01539-.86481 1.67265 0 .57993.16279 1.04999.4904 1.41015.32558.35813.72644.63284 1.20463.82412s1.11103.39273 1.90055.60842c.86481.2279 1.5587.45377 2.08166.67557s.96656.54127 1.3308.96249.54738.9808.54738 1.68486c0 .64098-.175 1.22295-.52296 1.74184-.35.51889-.83633.92382-1.45696 1.21481-.62267.28895-1.32062.43546-2.09387.43546-1.37963 0-2.50694-.30523-3.37989-.91772z"/><path d="m210.86304 64.29782h-10.67282c.03052 1.1151.27267 2.0552.72848 2.81827.45581.76511 1.05405 1.3369 1.79881 1.71945.74272.38255 1.55463.57383 2.43369.57383 1.21277 0 2.2302-.30319 3.05025-.90551.81801-.60435 1.33486-1.4244 1.54649-2.46421h1.07033c-.24418 1.26771-.86481 2.29532-1.86596 3.08281s-2.26886 1.18022-3.80111 1.18022c-1.15376 0-2.1834-.26046-3.09501-.77935-.90958-.51889-1.62381-1.26365-2.13863-2.23427s-.77324-2.10608-.77324-3.40431.25436-2.42962.76104-3.3921c.50871-.96249 1.21888-1.6991 2.12846-2.21189s1.94939-.76714 3.1174-.76714c1.18429 0 2.21189.25436 3.08281.76714.87295.51278 1.53632 1.19243 1.99212 2.03892.45581.84853.68168 1.76218.68168 2.73891 0 .55145-.01424.96452-.04477 1.23923zm-1.5587-3.64443c-.43139-.76511-1.01946-1.33283-1.76422-1.70724-.74272-.37441-1.54649-.56162-2.4113-.56162s-1.66451.18721-2.40113.56162-1.33486.94214-1.79678 1.70724c-.46395.76307-.71016 1.69503-.74069 2.79589h9.69405c.0468-1.10086-.14854-2.03282-.57993-2.79589z"/><path d="m223.17392 58.7854c.92382.90958 1.38777 2.25665 1.38777 4.04529v7.28885h-1.00115v-7.21967c0-1.48341-.37238-2.61682-1.1151-3.40431-.74476-.78749-1.75201-1.18022-3.02786-1.18022-1.33486 0-2.39909.42732-3.19676 1.28399-.79563.85464-1.19446 2.12235-1.19446 3.80314v6.71706h-1.02353v-12.44721h1.02353v2.63717c.35-.93196.92993-1.6462 1.74184-2.1427.80987-.4965 1.74794-.74679 2.81013-.74679 1.4712 0 2.66973.45581 3.59559 1.36539z"/><path d="m229.70377 58.56767v8.22692c0 .91772.16686 1.54852.50057 1.89242s.92586.51482 1.77643.51482h1.38777v.91772h-1.54852c-1.07644 0-1.87003-.25639-2.37671-.76918-.50871-.51075-.76307-1.36335-.76307-2.55578v-8.22692h-1.86596v-.89534h1.86596v-3.16216h1.02353v3.16216h3.66477v.89534z"/><path d="m236.81355 69.38496c-.87092-.61046-1.36132-1.48137-1.46713-2.61275h1.04795c.07529.80987.4436 1.45289 1.10289 1.92497.65929.47412 1.5587.7122 2.69618.7122.9401 0 1.68689-.24215 2.24241-.72237.55348-.48226.83022-1.0744.83022-1.77643 0-.48837-.14854-.89127-.4436-1.20463-.29709-.31133-.6654-.55348-1.10493-.72034-.43953-.16889-1.03778-.35203-1.79678-.55145-.90958-.24418-1.6462-.4843-2.20782-.72237-.56162-.23604-1.03981-.59011-1.43254-1.06423-.39476-.47412-.59214-1.109-.59214-1.90259 0-.58197.17296-1.11917.52296-1.61567.34796-.4965.83429-.89127 1.45696-1.18022.62063-.29098 1.32673-.43546 2.11625-.43546 1.28806 0 2.33194.32354 3.12757.97266.79766.65115 1.22498 1.54852 1.28603 2.69415h-1.02353c-.04477-.82615-.36424-1.49765-.95638-2.01654-.59011-.52092-1.41015-.77935-2.45607-.77935-.88109 0-1.60957.2279-2.18543.68778-.57586.45784-.86481 1.01539-.86481 1.67265 0 .57993.16279 1.04999.4904 1.41015.32558.35813.72644.63284 1.20463.82412s1.11103.39273 1.90055.60842c.86481.2279 1.5587.45377 2.08166.67557s.96656.54127 1.3308.96249.54738.9808.54738 1.68486c0 .64098-.175 1.22295-.52296 1.74184-.35.51889-.83633.92382-1.45696 1.21481-.62267.28895-1.32062.43546-2.09387.43546-1.37963 0-2.50694-.30523-3.37989-.91772z"/></g></svg>