<svg enable-background="new 0 0 2435 528" viewBox="0 0 2435 528" xmlns="http://www.w3.org/2000/svg" xmlns:xlink="http://www.w3.org/1999/xlink"><linearGradient id="a" gradientUnits="userSpaceOnUse" x1="499.75460774" x2=".0497687" y1="20.3463873" y2="520.05122634"><stop offset=".003435144" stop-color="#e44857"/><stop offset=".4689" stop-color="#c711e1"/><stop offset="1" stop-color="#7f52ff"/></linearGradient><path d="m499.8 520h-499.8v-499.6h499.8l-249.9 249.7z" fill="url(#a)"/><path d="m1104.6 18.8h-100.3l-216.2 231.9v-230.3h-79.9v499.6h79.9v-241.3l217.8 241.3h101.8l-230.3-258.4z"/><path d="m1375.6 170.8c-28.2-15.7-61.1-25.1-95.6-25.1-36 0-68.9 7.8-97.1 25.1s-51.7 39.2-67.4 67.4c-15.7 29.8-23.5 62.7-23.5 98.7s7.8 70.5 23.5 98.7 37.6 51.7 67.4 67.4c28.2 15.7 61.1 25.1 97.1 25.1s68.9-7.8 97.1-25.1c28.2-15.7 50.1-39.2 65.8-67.4 15.7-29.8 23.5-62.7 23.5-98.7s-9.4-68.9-25.1-98.7c-15.5-28.3-37.5-51.8-65.7-67.4zm-6.2 230.1c-9.4 18.8-21.9 32.9-37.6 42.3-15.7 11-34.5 15.7-54.8 15.7s-39.2-4.7-56.4-15.7c-15.7-11-28.2-25.1-37.6-42.3-9.4-18.8-12.5-39.2-12.5-62.7s4.7-45.4 14.1-62.7c9.4-18.8 21.9-32.9 37.6-42.3 15.7-11 34.5-15.7 56.4-15.7 20.4 0 39.2 4.7 54.8 15.7 15.7 11 28.2 25.1 37.6 42.3 9.4 18.8 12.5 39.2 12.5 62.7s-4.7 43.9-14.1 62.7z"/><path d="m1627.9 62.7h-76.8v62.7c0 9.4-1.6 17.2-7.8 21.9-4.7 4.7-12.5 7.8-21.9 7.8h-37.6v65.8h65.8v197.4c0 20.4 4.7 39.2 12.5 54.8 7.8 15.7 20.4 28.2 36 36 15.7 9.4 32.9 12.5 54.8 12.5h59.5v-68.9h-43.9c-11 0-20.4-3.1-28.2-12.5-6.3-7.8-11-18.8-11-31.3v-188h84.6v-65.8h-84.6v-92.4z"/><path d="m1773.6 0h78.3v520h-78.3z"/><path d="m1941.2 1.6h79.9v81.5h-79.9z"/><path d="m1941.2 155.1h78.3v366.4h-78.3z"/><path d="m2419.1 214.6c-11-21.9-26.6-39.2-47-50.1-20.4-12.5-43.9-18.8-70.5-18.8-28.2 0-53.3 7.8-75.2 20.4-17.2 11-31.3 26.6-42.3 43.9v-56.4h-75.2v366.4h78.3v-205.3c0-20.4 3.1-37.6 11-53.3 7.8-15.7 18.8-26.6 31.3-36 14.1-7.8 29.8-12.5 48.6-12.5 17.2 0 29.8 3.1 42.3 11s20.4 17.2 26.6 29.8c6.3 12.5 9.4 28.2 9.4 45.4v219.3h78.3v-228.7c1.7-28.1-4.5-53.1-15.6-75.1z"/></svg>