<?xml version="1.0" encoding="UTF-8"?><svg id="_レイヤー_2" xmlns="http://www.w3.org/2000/svg" xmlns:xlink="http://www.w3.org/1999/xlink" viewBox="0 0 399.25601 79.37008"><defs><style>.cls-1{fill:#1b1b1b;}.cls-1,.cls-2,.cls-3,.cls-4{stroke-width:0px;}.cls-2{fill:url(#_名称未設定グラデーション_104);}.cls-3{fill:#ccc;}.cls-4{fill:#fff;}</style><linearGradient id="_名称未設定グラデーション_104" x1="30.71067" y1="50.32016" x2="67.23225" y2="35.44136" gradientUnits="userSpaceOnUse"><stop offset="0" stop-color="#898989"/><stop offset=".4998" stop-color="#b5b5b6"/><stop offset="1" stop-color="#dcdddd"/></linearGradient></defs><g id="_レイヤー_1-2"><path class="cls-4" d="M49.46281,62.29659c-1.64546,1.29124-3.39777,2.45259-5.24146,3.46862,0,0-4.08527,1.93717-4.08527,4.19598,0,1.75488,1.10524,3.25162,2.6576,3.8321.85678.32038,1.43234,1.12739,1.43234,2.0421h0c0,1.15543-.93666,2.09209-2.09209,2.09209h-12.95927c-1.15543,0-2.09209-.93666-2.09209-2.09209h0c0-.91472.57557-1.72173,1.43234-2.04211,1.55236-.58049,2.6576-2.07722,2.6576-3.8321,0-2.25881-4.08527-4.19598-4.08527-4.19598C15.09188,59.15476,6.96501,46.39315,6.96501,31.72753c0-7.731,2.49105-15.41333,6.38337-21.46613h0C17.03961,4.93277,23.19752,1.44269,30.17059,1.44269c9.8823,0,18.12737,7.00977,20.03423,16.32833"/><path class="cls-4" d="M67.95211,59.35074l-3.63-7.09124c-.40298-.78711.36036-1.66317,1.1952-1.37203l3.40032,1.18551c1.19203.41584,2.34461-.7142,1.95255-1.91459l-1.47842-4.5248c-1.20648-3.69269-2.04696-7.48612-2.78705-11.29981-.55445-2.8589-1.70844-5.50266-3.31966-7.80209l-15.4207,15.42066,19.43465,19.43461c.68408-.36573,1.06557-1.2299.65308-2.03621Z"/><path class="cls-2" d="M47.86436,41.95236l15.42071-15.42067c-2.25657-3.21952-5.41558-5.75735-9.11179-7.24808-2.73916-1.10478-5.77032-1.63782-8.94765-1.44064-5.67909.35261-10.76671,3.08767-14.26776,7.2029-2.77721,3.26435-4.55716,7.39648-4.83686,11.90111-.19723,3.17682.34133,6.20443,1.44565,8.94313,1.49079,3.6972,4.02736,6.85535,7.2477,9.11222.22121.15493.43923.31385.66646.46023l.73234.52292c3.24604,2.14621,15.5179,7.22668,22.63698,10.10093,1.16879.47181,2.36965-.59886,2.03678-1.8143-.27935-1.01932-.58262-2.09961-.82675-2.96229-.20856-.73709.46918-1.41544,1.20577-1.2042,1.33996.38433,3.25697.93412,4.91007,1.4078.41252.11835.79892.04695,1.123-.12644l-19.43466-19.43461Z"/><path class="cls-3" d="M9.07082,18.14576l-6.16456,1.83875c-1.52362.45446-1.96853,2.39757-.79446,3.46971l4.85306,4.43177"/><path class="cls-1" d="M19.60568,15.58948c-1.40938,0-2.55597,1.14677-2.55597,2.55631,0,1.40946,1.14659,2.55614,2.55597,2.55614,1.40973,0,2.55632-1.14668,2.55632-2.55614,0-1.40955-1.14659-2.55631-2.55632-2.55631Z"/><path class="cls-1" d="M71.49823,52.75229c.8116-.7961,1.09622-1.96206.74326-3.04207l-1.47807-4.52507c-1.26319-3.86424-2.09522-7.79258-2.74266-11.12632-1.67004-8.60902-8.3069-15.1828-16.52467-17.1129C49.21946,7.09512,40.34086,0,30.17088,0c-7.18179,0-13.9141,3.52889-18.0362,9.48059-1.49145,2.31916-2.74231,4.79586-3.74659,7.36327l-5.89394,1.75802c-1.22021.36423-2.11847,1.32236-2.40309,2.56371s.10709,2.49537,1.04761,3.35417l4.51063,4.1183c-.08243,1.03087-.12716,2.06184-.12716,3.08954,0,14.68128,7.99621,28.20787,20.86904,35.30158l.0775.03945c1.36182.64604,3.26118,2.05858,3.26118,2.89272,0,1.09904-.69113,2.09592-1.72112,2.48058-1.41677.5305-2.36927,1.89372-2.36927,3.39362,0,1.94867,1.58586,3.53453,3.53524,3.53453h12.95949c1.94868,0,3.53453-1.58585,3.53453-3.53453,0-1.4999-.9525-2.86313-2.36998-3.39362-1.02859-.38466-1.71971-1.38154-1.71971-2.48058,0-.76369,1.72253-2.15721,3.26118-2.89272l.0775-.03945c1.67286-.92159,3.28655-1.97765,4.81815-3.13278,2.87793,1.21096,5.84146,2.42466,8.57391,3.52801.36353.14654.74185.2184,1.11665.2184.71085,0,1.40902-.25785,1.96347-.75242.84823-.75453,1.18851-1.90429.88839-3.00051-.19867-.72424-.40932-1.47947-.60236-2.16566l4.10237,1.17653c1.15469.32971,2.34532-.03945,3.1083-.96729.76369-.92854.89755-2.16989.34944-3.24004l-3.10337-6.06301,2.31009.80525c1.07297.37339,2.24316.11202,3.05547-.68337ZM3.08453,22.38932c-.22544-.20642-.20994-.45159-.18035-.57911.02888-.12822.12188-.35578.41425-.44243l3.90969-1.16623c-.48224,1.6231-.85915,3.27201-1.1392,4.93086l-3.00439-2.7431ZM43.56153,64.48167c-.90741.43539-4.86817,2.50946-4.86817,5.47968,0,2.296,1.44495,4.37923,3.59442,5.18308.30083.11272.49527.38396.49527.69112,0,.35789-.29096.64885-.64886.64885h-12.95949c-.35789,0-.64956-.29096-.64956-.64885,0-.30717.19445-.5784.49457-.69112,2.15087-.80385,3.59583-2.88708,3.59583-5.18308,0-2.97021-3.96076-5.04429-4.86817-5.47968-11.9302-6.59139-19.33955-19.13871-19.33955-32.75407,0-7.06412,2.24316-14.60378,6.12714-20.64496,3.55497-5.13235,9.4003-8.19697,15.63593-8.19697,8.43054,0,15.84094,5.61204,18.2155,13.56146-1.06769-.09255-2.15299-.1114-3.25026-.04403-10.97981.68126-19.77352,9.47495-20.45479,20.45474-.49245,7.93137,3.34643,15.52528,9.96109,19.77911l.77426.55163c1.81729,1.20172,6.18632,3.22252,11.21582,5.38765-.99547.68337-2.01948,1.32474-3.07097,1.90543ZM63.03775,52.91644l3.62964,7.0923c.01409.02748.02536.04932-.00916.09159-.03523.04157-.05707.03452-.08454.02607l-4.91115-1.40832c-.84048-.24024-1.75071-.00705-2.37209.61151-.62067.61856-.8581,1.52808-.61856,2.3742.24306.8588.54529,1.93529.82357,2.94908.00705.02536.01339.04932-.02395.08243-.03593.03241-.05707.02395-.08102.01339-11.89427-4.80264-20.03983-8.42805-22.3619-9.95402l-.76721-.54529c-5.7939-3.72827-9.12765-10.32318-8.70001-17.21258.59109-9.5299,8.22376-17.16256,17.75369-17.75365,9.50527-.58827,18.06227,5.99679,19.87357,15.3252.66365,3.4211,1.51963,7.45935,2.83143,11.47294l1.47807,4.52507c.00845.02536.0162.04932-.02043.08525-.03804.03593-.05918.02818-.08525.01902l-3.40068-1.18569c-.93841-.3283-1.97052-.05495-2.62501.69676-.65379.75101-.78271,1.80848-.32901,2.69475Z"/><path class="cls-1" d="M107.18996,39.94205l-12.23241-13.55499v13.55499h-3.8788V10.23234h3.8788v13.76785l12.27593-13.76785h4.90053l-13.46795,14.87662,13.59661,14.8331h-5.07271Z"/><path class="cls-1" d="M118.08088,38.83423c-1.77668-.99524-3.16926-2.40864-4.17775-4.24208-1.00849-1.8325-1.51179-3.95638-1.51179-6.37164,0-2.38783.51843-4.49752,1.5553-6.33001,1.03687-1.83344,2.45027-3.23927,4.24208-4.22032,1.78992-.98011,3.79366-1.47016,6.0093-1.47016s4.21938.49005,6.0093,1.47016c1.79182.98105,3.20521,2.38026,4.24208,4.19856,1.03687,1.81925,1.5553,3.93651,1.5553,6.35177s-.53168,4.53914-1.59882,6.37164c-1.06525,1.83344-2.50703,3.24684-4.32533,4.24208-1.81831.9943-3.83717,1.49192-6.05282,1.49192-2.18916,0-4.17018-.49762-5.94686-1.49192ZM127.94816,35.93554c1.22229-.65372,2.20997-1.63383,2.96302-2.94127.75305-1.30649,1.12958-2.89869,1.12958-4.77376,0-1.87601-.36896-3.46727-1.10877-4.77471-.73792-1.30649-1.70478-2.27998-2.89869-2.91951-1.19202-.63953-2.48622-.95929-3.8788-.95929-1.42097,0-2.72084.31976-3.89961.95929s-2.12483,1.61301-2.83436,2.91951c-.71143,1.30744-1.06525,2.89869-1.06525,4.77471,0,1.90345.34815,3.50984,1.04444,4.81633.69629,1.30744,1.62531,2.27998,2.79084,2.91951s2.44459.95929,3.83717.95929,2.70002-.32639,3.92043-.98011Z"/><path class="cls-1" d="M144.99785,19.78081v13.76785c0,1.1362.24219,1.9394.72467,2.40769.48248.46924,1.32258.70386,2.5146.70386h2.85707v3.28184h-3.4966c-2.15888,0-3.77852-.49668-4.85891-1.49192-1.08039-.9943-1.61964-2.62812-1.61964-4.90148v-13.76785h-3.02546v-3.19764h3.02546v-5.88158h3.8788v5.88158h6.09634v3.19764h-6.09634Z"/><path class="cls-1" d="M159.66161,8.39984v31.54221h-3.8788V8.39984h3.8788Z"/><path class="cls-1" d="M166.18178,12.02226c-.51087-.51087-.7663-1.1362-.7663-1.87507s.25543-1.3642.7663-1.87601c.51276-.51087,1.13715-.76725,1.87507-.76725.71143,0,1.31501.25638,1.81263.76725.49762.51181.74549,1.13715.74549,1.87601s-.24786,1.3642-.74549,1.87507c-.49762.51181-1.1012.76725-1.81263.76725-.73792,0-1.36231-.25543-1.87507-.76725ZM169.9338,16.58317v23.35889h-3.8788v-23.35889h3.8788Z"/><path class="cls-1" d="M194.40052,18.73637c1.76154,1.71897,2.64326,4.19856,2.64326,7.43783v13.76785h-3.83717v-13.21346c0-2.33012-.58277-4.11342-1.74641-5.34991-1.16553-1.23649-2.75679-1.85426-4.77376-1.85426-2.04725,0-3.67445.63953-4.88161,1.91859-1.20716,1.27811-1.81074,3.13994-1.81074,5.58358v12.91546h-3.8788v-23.35889h3.8788v3.32536c.7663-1.19391,1.81074-2.11726,3.13331-2.77098,1.32068-.65372,2.77571-.98011,4.36885-.98011,2.84004,0,5.14272.85996,6.90426,2.57893Z"/><path class="cls-1" d="M229.01455,10.23234v3.15413h-12.91546v10.01676h10.486v3.15413h-10.486v13.3847h-3.8788V10.23234h16.79426Z"/><path class="cls-1" d="M253.18041,29.71243h-18.66932c.14191,2.30174.93091,4.09923,2.36512,5.39153,1.43421,1.29325,3.17494,1.9394,5.22219,1.9394,1.6764,0,3.07466-.38977,4.19856-1.17215,1.12201-.78144,1.91102-1.82587,2.36512-3.13237h4.17775c-.62628,2.24497-1.87507,4.0699-3.75203,5.47668-1.87507,1.40677-4.20424,2.11063-6.98941,2.11063-2.21754,0-4.19856-.49762-5.94686-1.49192-1.7483-.99524-3.11818-2.40864-4.11342-4.24208-.99524-1.8325-1.49097-3.95638-1.49097-6.37164s.48248-4.53252,1.44935-6.35177c.96497-1.81831,2.3216-3.21751,4.0699-4.19856,1.7483-.98011,3.75771-1.47016,6.03201-1.47016,2.21565,0,4.17775.48343,5.88253,1.44935,1.70478.96592,3.0179,2.29511,3.94124,3.98476.92334,1.69154,1.38691,3.60255,1.38691,5.73306,0,.73981-.04352,1.52125-.12866,2.34525ZM248.32151,22.74289c-.65467-1.06525-1.54206-1.87601-2.66407-2.42945-1.12391-.55438-2.36512-.83158-3.72932-.83158-1.9621,0-3.63093.62534-5.00838,1.87601-1.37934,1.25068-2.16834,2.98384-2.36701,5.19948h14.7489c0-1.47678-.32733-2.74922-.98011-3.81447Z"/><path class="cls-1" d="M261.23507,39.40943c-1.42097-.61115-2.54298-1.46354-3.36604-2.55812-.82495-1.09363-1.27906-2.35093-1.3642-3.7719h4.00557c.11353,1.16553.66223,2.11726,1.64234,2.85612.98011.73886,2.26484,1.10782,3.85799,1.10782,1.47584,0,2.64137-.32639,3.4947-.98011.85144-.65372,1.27906-1.47773,1.27906-2.47203,0-1.02362-.456-1.7833-1.3642-2.28092-.9101-.49668-2.31593-.98673-4.21938-1.47016-1.73505-.4541-3.14845-.91672-4.24208-1.38596-1.09363-.46829-2.03211-1.16459-2.81355-2.08793s-1.17121-2.13807-1.17121-3.64513c0-1.19297.35382-2.2866,1.06525-3.28184.70954-.9943,1.71802-1.7833,3.02546-2.36607,1.30744-.58182,2.79841-.8732,4.4767-.8732,2.58461,0,4.67348.65372,6.26473,1.96021,1.59125,1.30744,2.44459,3.09831,2.55812,5.37072h-3.8788c-.08514-1.22135-.5752-2.20146-1.47016-2.94032s-2.09644-1.10877-3.60255-1.10877c-1.39258,0-2.50135.29895-3.32442.89496-.82495.59696-1.23554,1.37934-1.23554,2.34431,0,.76725.24786,1.40015.74549,1.89683.49762.49762,1.12201.89591,1.87507,1.19391s1.79749.63291,3.13331,1.00187c1.6764.45505,3.0406.90253,4.09261,1.34244,1.05011.44086,1.95264,1.1012,2.7057,1.98197.75305.88172,1.14472,2.03211,1.1731,3.45308,0,1.27811-.35571,2.42945-1.06714,3.45213-.70954,1.02362-1.71235,1.82682-3.00465,2.40864-1.2923.58182-2.7776.87415-4.454.87415-1.78992,0-3.39631-.30652-4.81728-.91672Z"/><path class="cls-1" d="M284.7633,19.78081v13.76785c0,1.1362.24219,1.9394.72467,2.40769.48248.46924,1.32258.70386,2.5146.70386h2.85707v3.28184h-3.4966c-2.15888,0-3.77852-.49668-4.85891-1.49192-1.08039-.9943-1.61964-2.62812-1.61964-4.90148v-13.76785h-3.02546v-3.19764h3.02546v-5.88158h3.8788v5.88158h6.09634v3.19764h-6.09634Z"/><path class="cls-1" d="M312.59795,29.69067c2.04536-1.86088,3.77284-3.80785,5.17867-5.83996,1.40772-2.03117,2.10969-4.02733,2.10969-5.98849,0-1.84669-.44653-3.3036-1.3415-4.36885-.89496-1.0662-2.33863-1.59882-4.32723-1.59882-1.93183,0-3.43037.60453-4.49752,1.81168-1.06525,1.2081-1.64045,2.82017-1.72559,4.83809h-3.75014c.11163-3.18251,1.0785-5.64034,2.8968-7.37445,1.81831-1.73316,4.16261-2.59974,7.03482-2.59974,2.92518,0,5.24868.80982,6.96859,2.42945,1.71802,1.61964,2.57893,3.85136,2.57893,6.69235,0,2.3585-.70386,4.65361-2.10969,6.88345-1.40772,2.23173-3.00654,4.19194-4.79647,5.88253s-4.07747,3.65932-6.86264,5.90334h14.66375v3.24022h-20.50277v-2.77098c3.60823-2.89869,6.43692-5.27801,8.48227-7.13983Z"/><path class="cls-1" d="M330.41583,12.7687c1.59125-2.7426,4.37642-4.11342,8.3555-4.11342,3.94881,0,6.71884,1.37082,8.31198,4.11342,1.59125,2.7426,2.38593,6.55706,2.38593,11.44435,0,4.97338-.79468,8.83799-2.38593,11.59477-1.59315,2.75584-4.36318,4.13423-8.31198,4.13423-3.97908,0-6.76425-1.37839-8.3555-4.13423-1.59125-2.75679-2.38593-6.62139-2.38593-11.59477,0-4.88729.79468-8.70176,2.38593-11.44435ZM345.14391,17.92655c-.32733-1.71897-.99524-3.10493-2.00373-4.15599s-2.4654-1.57706-4.36885-1.57706c-1.93372,0-3.40388.526-4.41237,1.57706s-1.6764,2.43702-2.00373,4.15599-.49005,3.81447-.49005,6.28649c0,2.55812.16272,4.70375.49005,6.43692s.99524,3.12574,2.00373,4.1768c1.00849,1.05201,2.47865,1.57706,4.41237,1.57706,1.90345,0,3.36036-.52506,4.36885-1.57706,1.00849-1.05106,1.6764-2.44364,2.00373-4.1768.32544-1.73316.49005-3.8788.49005-6.43692,0-2.47203-.16461-4.56752-.49005-6.28649Z"/><path class="cls-1" d="M361.74518,29.69067c2.04536-1.86088,3.77284-3.80785,5.17867-5.83996,1.40772-2.03117,2.10969-4.02733,2.10969-5.98849,0-1.84669-.44653-3.3036-1.3415-4.36885-.89496-1.0662-2.33863-1.59882-4.32723-1.59882-1.93183,0-3.43037.60453-4.49752,1.81168-1.06525,1.2081-1.64045,2.82017-1.72559,4.83809h-3.75014c.11163-3.18251,1.0785-5.64034,2.8968-7.37445,1.81831-1.73316,4.16261-2.59974,7.03482-2.59974,2.92518,0,5.24868.80982,6.96859,2.42945,1.71802,1.61964,2.57893,3.85136,2.57893,6.69235,0,2.3585-.70386,4.65361-2.10969,6.88345-1.40772,2.23173-3.00654,4.19194-4.79647,5.88253s-4.07747,3.65932-6.86264,5.90334h14.66375v3.24022h-20.50277v-2.77098c3.60823-2.89869,6.43692-5.27801,8.48227-7.13983Z"/><path class="cls-1" d="M375.38531,33.07942v-2.94127l14.96081-20.71563h4.64699v20.28991h4.2629v3.36699h-4.2629v6.86264h-3.83717v-6.86264h-15.77063ZM391.32812,13.47161l-11.46611,16.24082h11.46611V13.47161Z"/><path class="cls-1" d="M98.46857,53.59137v12.49198c0,1.11714-.34186,2.02061-1.02557,2.71653-.68168.69592-1.60754,1.04388-2.77554,1.04388-1.22905,0-2.19561-.37848-2.9017-1.13545-.70406-.75697-1.05812-1.79881-1.05812-3.12961h1.02353c0,.97877.23604,1.7805.70609,2.40723s1.21277.9401,2.2302.9401c.97063,0,1.67265-.27878,2.10404-.83633.43342-.55755.64912-1.22702.64912-2.00637v-12.49198h1.04795Z"/><path class="cls-1" d="M110.71026,69.683l-7.3499-7.58797v7.58797h-1.02353v-16.09163h1.02353v7.65716l7.3499-7.65716h1.32062l-7.78332,8.0682,7.8057,8.02343h-1.343Z"/><path class="cls-1" d="M115.35177,53.59137v10.06236c0,1.81916.41104,3.15199,1.22905,4.00053.82005.84853,1.93515,1.27178,3.3453,1.27178,1.39591,0,2.49473-.41918,3.30053-1.25958.80377-.8404,1.20463-2.17933,1.20463-4.01273v-10.06236h1.02557v10.03998c0,2.09387-.50057,3.65256-1.50172,4.6761s-2.34415,1.53632-4.02901,1.53632c-1.68283,0-3.03804-.51685-4.06157-1.54852s-1.53632-2.5863-1.53632-4.66389v-10.03998h1.02353Z"/><path class="cls-1" d="M142.2261,58.33665c-.45377-1.20667-1.2087-2.16916-2.26276-2.88746s-2.30346-1.07847-3.74413-1.07847c-1.25958,0-2.39706.29912-3.41245.89534-1.01743.59621-1.8212,1.44271-2.41334,2.54357-.59011,1.10086-.8872,2.38282-.8872,3.84995s.29709,2.75112.8872,3.85198c.59214,1.09882,1.39591,1.94329,2.41334,2.53136,1.01539.59011,2.15288.88313,3.41245.88313,1.21481,0,2.31363-.27471,3.30053-.82412.98487-.55145,1.77439-1.33486,2.36654-2.35026.59011-1.01539.91772-2.20375.97877-3.56507h-7.12403v-.87092h8.16994v.68778c-.04477,1.49765-.4029,2.84269-1.07033,4.03512s-1.57701,2.12439-2.73078,2.79589c-1.15173.67354-2.44997,1.00929-3.89064,1.00929-1.4712,0-2.79793-.34796-3.98221-1.04388-1.18225-.69592-2.10811-1.66451-2.77554-2.90984s-1.00115-2.65549-1.00115-4.23046c0-1.58922.33372-3.00548,1.00115-4.25081s1.59329-2.21596,2.77554-2.91188c1.18429-.69389,2.51101-1.04185,3.98221-1.04185,1.71538,0,3.19676.43139,4.44819,1.29417,1.25144.86481,2.16712,2.05927,2.74298,3.58745h-1.18429Z"/><path class="cls-1" d="M161.77495,61.44184c-.87906.78749-2.1834,1.18022-3.91303,1.18022h-3.41449v7.06095h-1.02353v-16.09163h4.43802c1.75811,0,3.0706.40901,3.93541,1.22702s1.29824,1.9209,1.29824,3.31274c0,1.42033-.44156,2.52526-1.32062,3.31071ZM162.07,58.13113c0-1.17615-.33372-2.07555-1.00115-2.69415s-1.73573-.92789-3.20693-.92789h-3.41449v7.19728h3.41449c2.80607,0,4.20808-1.19243,4.20808-3.57524Z"/><path class="cls-1" d="M168.48794,57.70585c.77324-.48023,1.76015-.72237,2.95868-.72237v1.07847h-.34186c-1.21277,0-2.22206.34796-3.02583,1.04185-.80377.69592-1.20667,1.83137-1.20667,3.40431v7.1749h-1.02353v-12.44721h1.02353v2.56799c.30319-.91772.84243-1.61567,1.61567-2.09794Z"/><path class="cls-1" d="M184.89497,63.86128h-10.67282c.03052,1.1151.27267,2.0552.72848,2.81827.45581.76511,1.05405,1.3369,1.79881,1.71945.74272.38255,1.55463.57383,2.43369.57383,1.21277,0,2.2302-.30319,3.05025-.90551.81801-.60435,1.33486-1.4244,1.54649-2.46421h1.07033c-.24418,1.26771-.86481,2.29532-1.86596,3.08281-1.00115.78749-2.26886,1.18022-3.80111,1.18022-1.15376,0-2.1834-.26046-3.09501-.77935-.90958-.51889-1.62381-1.26365-2.13863-2.23427s-.77324-2.10608-.77324-3.40431.25436-2.42962.76104-3.3921c.50871-.96249,1.21888-1.6991,2.12846-2.21189s1.94939-.76714,3.1174-.76714c1.18429,0,2.21189.25436,3.08281.76714.87295.51278,1.53632,1.19243,1.99212,2.03892.45581.84853.68168,1.76218.68168,2.73891,0,.55145-.01424.96452-.04477,1.23923ZM183.33627,60.21686c-.43139-.76511-1.01946-1.33283-1.76422-1.70724-.74272-.37441-1.54649-.56162-2.4113-.56162s-1.66451.18721-2.40113.56162-1.33486.94214-1.79678,1.70724c-.46395.76307-.71016,1.69503-.74069,2.79589h9.69405c.0468-1.10086-.14854-2.03282-.57993-2.79589Z"/><path class="cls-1" d="M188.77341,68.94842c-.87092-.61046-1.36132-1.48137-1.46713-2.61275h1.04795c.07529.80987.4436,1.45289,1.10289,1.92497.65929.47412,1.5587.7122,2.69618.7122.9401,0,1.68689-.24215,2.24241-.72237.55348-.48226.83022-1.0744.83022-1.77643,0-.48837-.14854-.89127-.4436-1.20463-.29709-.31133-.6654-.55348-1.10493-.72034-.43953-.16889-1.03778-.35203-1.79678-.55145-.90958-.24418-1.6462-.4843-2.20782-.72237-.56162-.23604-1.03981-.59011-1.43254-1.06423-.39476-.47412-.59214-1.109-.59214-1.90259,0-.58197.17296-1.11917.52296-1.61567.34796-.4965.83429-.89127,1.45696-1.18022.62063-.29098,1.32673-.43546,2.11625-.43546,1.28806,0,2.33194.32354,3.12757.97266.79766.65115,1.22498,1.54852,1.28603,2.69415h-1.02353c-.04477-.82615-.36424-1.49765-.95638-2.01654-.59011-.52092-1.41015-.77935-2.45607-.77935-.88109,0-1.60957.2279-2.18543.68778-.57586.45784-.86481,1.01539-.86481,1.67265,0,.57993.16279,1.04999.4904,1.41015.32558.35813.72644.63284,1.20463.82412s1.11103.39273,1.90055.60842c.86481.2279,1.5587.45377,2.08166.67557s.96656.54127,1.3308.96249.54738.9808.54738,1.68486c0,.64098-.175,1.22295-.52296,1.74184-.35.51889-.83633.92382-1.45696,1.21481-.62267.28895-1.32062.43546-2.09387.43546-1.37963,0-2.50694-.30523-3.37989-.91772Z"/><path class="cls-1" d="M210.4263,63.86128h-10.67282c.03052,1.1151.27267,2.0552.72848,2.81827.45581.76511,1.05405,1.3369,1.79881,1.71945.74272.38255,1.55463.57383,2.43369.57383,1.21277,0,2.2302-.30319,3.05025-.90551.81801-.60435,1.33486-1.4244,1.54649-2.46421h1.07033c-.24418,1.26771-.86481,2.29532-1.86596,3.08281-1.00115.78749-2.26886,1.18022-3.80111,1.18022-1.15376,0-2.1834-.26046-3.09501-.77935-.90958-.51889-1.62381-1.26365-2.13863-2.23427s-.77324-2.10608-.77324-3.40431.25436-2.42962.76104-3.3921c.50871-.96249,1.21888-1.6991,2.12846-2.21189s1.94939-.76714,3.1174-.76714c1.18429,0,2.21189.25436,3.08281.76714.87295.51278,1.53632,1.19243,1.99212,2.03892.45581.84853.68168,1.76218.68168,2.73891,0,.55145-.01424.96452-.04477,1.23923ZM208.8676,60.21686c-.43139-.76511-1.01946-1.33283-1.76422-1.70724-.74272-.37441-1.54649-.56162-2.4113-.56162s-1.66451.18721-2.40113.56162-1.33486.94214-1.79678,1.70724c-.46395.76307-.71016,1.69503-.74069,2.79589h9.69405c.0468-1.10086-.14854-2.03282-.57993-2.79589Z"/><path class="cls-1" d="M222.73717,58.34886c.92382.90958,1.38777,2.25665,1.38777,4.04529v7.28885h-1.00115v-7.21967c0-1.48341-.37238-2.61682-1.1151-3.40431-.74476-.78749-1.75201-1.18022-3.02786-1.18022-1.33486,0-2.39909.42732-3.19676,1.28399-.79563.85464-1.19446,2.12235-1.19446,3.80314v6.71706h-1.02353v-12.44721h1.02353v2.63717c.35-.93196.92993-1.6462,1.74184-2.1427.80987-.4965,1.74794-.74679,2.81013-.74679,1.4712,0,2.66973.45581,3.59559,1.36539Z"/><path class="cls-1" d="M229.26702,58.13113v8.22692c0,.91772.16686,1.54852.50057,1.89242s.92586.51482,1.77643.51482h1.38777v.91772h-1.54852c-1.07644,0-1.87003-.25639-2.37671-.76918-.50871-.51075-.76307-1.36335-.76307-2.55578v-8.22692h-1.86596v-.89534h1.86596v-3.16216h1.02353v3.16216h3.66477v.89534h-3.66477Z"/><path class="cls-1" d="M236.37681,68.94842c-.87092-.61046-1.36132-1.48137-1.46713-2.61275h1.04795c.07529.80987.4436,1.45289,1.10289,1.92497.65929.47412,1.5587.7122,2.69618.7122.9401,0,1.68689-.24215,2.24241-.72237.55348-.48226.83022-1.0744.83022-1.77643,0-.48837-.14854-.89127-.4436-1.20463-.29709-.31133-.6654-.55348-1.10493-.72034-.43953-.16889-1.03778-.35203-1.79678-.55145-.90958-.24418-1.6462-.4843-2.20782-.72237-.56162-.23604-1.03981-.59011-1.43254-1.06423-.39476-.47412-.59214-1.109-.59214-1.90259,0-.58197.17296-1.11917.52296-1.61567.34796-.4965.83429-.89127,1.45696-1.18022.62063-.29098,1.32673-.43546,2.11625-.43546,1.28806,0,2.33194.32354,3.12757.97266.79766.65115,1.22498,1.54852,1.28603,2.69415h-1.02353c-.04477-.82615-.36424-1.49765-.95638-2.01654-.59011-.52092-1.41015-.77935-2.45607-.77935-.88109,0-1.60957.2279-2.18543.68778-.57586.45784-.86481,1.01539-.86481,1.67265,0,.57993.16279,1.04999.4904,1.41015.32558.35813.72644.63284,1.20463.82412s1.11103.39273,1.90055.60842c.86481.2279,1.5587.45377,2.08166.67557s.96656.54127,1.3308.96249.54738.9808.54738,1.68486c0,.64098-.175,1.22295-.52296,1.74184-.35.51889-.83633.92382-1.45696,1.21481-.62267.28895-1.32062.43546-2.09387.43546-1.37963,0-2.50694-.30523-3.37989-.91772Z"/></g></svg>